<?xml version="1.0" standalone="no"?>
<!DOCTYPE svg PUBLIC "-//W3C//DTD SVG 20010904//EN"
 "http://www.w3.org/TR/2001/REC-SVG-20010904/DTD/svg10.dtd">
<svg version="1.0" xmlns="http://www.w3.org/2000/svg"
 width="512.000000pt" height="512.000000pt" viewBox="0 0 512.000000 512.000000"
 preserveAspectRatio="xMidYMid meet">
<metadata>
Created by potrace 1.11, written by Peter Selinger 2001-2013
</metadata>
<g transform="translate(0.000000,512.000000) scale(0.100000,-0.100000)"
fill="#000000" stroke="none">
<path d="M515 5113 c-247 -35 -425 -188 -492 -423 -17 -62 -18 -157 -18 -2130
0 -1973 1 -2068 18 -2130 58 -206 201 -349 407 -407 62 -17 157 -18 2130 -18
1973 0 2068 1 2130 18 206 58 349 201 407 407 17 62 18 157 18 2130 0 1973 -1
2068 -18 2130 -58 203 -197 344 -402 406 -57 18 -161 19 -2105 20 -1125 1
-2058 -1 -2075 -3z m2213 -1283 c394 -50 635 -230 751 -562 61 -175 64 -208
68 -823 4 -528 6 -562 24 -591 28 -46 61 -56 197 -62 l122 -5 0 -223 0 -224
-239 0 c-213 0 -246 2 -306 21 -160 49 -251 147 -280 302 -11 55 -33 46 -90
-34 -55 -78 -167 -188 -238 -238 -106 -73 -271 -111 -477 -111 -447 0 -740
186 -852 540 -20 65 -23 95 -22 215 1 123 4 150 27 220 90 275 310 441 677
511 67 13 174 17 508 21 l422 5 0 66 c-1 159 -50 310 -129 395 -90 97 -242
145 -426 133 -259 -15 -413 -116 -487 -318 l-21 -58 -262 0 -263 0 13 69 c28
147 63 235 134 340 152 223 419 372 746 414 66 9 325 6 403 -3z"/>
<path d="M2216 2384 c-93 -20 -155 -54 -204 -109 -57 -65 -75 -126 -70 -234 3
-71 9 -95 33 -139 69 -127 231 -192 445 -179 262 16 439 144 533 385 30 79 57
200 57 258 l0 34 -362 -1 c-280 0 -379 -4 -432 -15z"/>
</g>
</svg>
