<svg id="Livello_1" data-name="Livello 1" xmlns="http://www.w3.org/2000/svg" viewBox="0 0 106.6 11.2"><defs><style>.cls-1{fill:#fff;}</style></defs><path class="cls-1" d="M86.3,9.61V7.08a2.32,2.32,0,0,1,.49-1.49A1.67,1.67,0,0,1,88.18,5h1.65V3.24H88.65A2.54,2.54,0,0,0,87,3.68,2,2,0,0,0,86.3,5h-.07V3.42H84.67V11H106.6V9.61Z"/><path class="cls-1" d="M74.15,9.61a.44.44,0,0,1-.49-.5V0H72V4.41a2.12,2.12,0,0,0-.84-.84,2.84,2.84,0,0,0-1.44-.33A3.1,3.1,0,0,0,66.87,5a5,5,0,0,0-.44,2.19,4.94,4.94,0,0,0,.43,2.19,3.12,3.12,0,0,0,1.19,1.34,3.25,3.25,0,0,0,1.7.45,2.68,2.68,0,0,0,1.43-.35A2.39,2.39,0,0,0,72,9.9h.09l0,0a1.17,1.17,0,0,0,.36.78,1.44,1.44,0,0,0,1,.36h1.19V9.61ZM71.53,9a1.88,1.88,0,0,1-1.45.61,1.9,1.9,0,0,1-1.44-.6,2.55,2.55,0,0,1-.58-1.81,2.62,2.62,0,0,1,.58-1.84,1.87,1.87,0,0,1,1.44-.61,1.91,1.91,0,0,1,1.45.6,2.61,2.61,0,0,1,.57,1.83A2.58,2.58,0,0,1,71.53,9Z"/><path class="cls-1" d="M44.69,11.2a3.74,3.74,0,0,1-2.39-.7,2.66,2.66,0,0,1-1-1.87H43a1.31,1.31,0,0,0,.54.87,1.92,1.92,0,0,0,1.2.34,1.79,1.79,0,0,0,1.11-.3.87.87,0,0,0,.39-.7.79.79,0,0,0-.46-.79,4.94,4.94,0,0,0-1.37-.32A5.1,5.1,0,0,1,43,7.37a2.47,2.47,0,0,1-1-.74,1.8,1.8,0,0,1-.37-1.17,1.93,1.93,0,0,1,.78-1.6,3.44,3.44,0,0,1,2.17-.62,3.31,3.31,0,0,1,2.16.63,2.48,2.48,0,0,1,.89,1.72H46a1,1,0,0,0-.48-.73,1.8,1.8,0,0,0-1-.27,1.83,1.83,0,0,0-1,.24.71.71,0,0,0-.36.62c0,.55.59.88,1.77,1a7,7,0,0,1,1.5.31,2.22,2.22,0,0,1,1,.69,2,2,0,0,1,.38,1.31A2,2,0,0,1,47.46,10a2.88,2.88,0,0,1-1.11.87A4.1,4.1,0,0,1,44.69,11.2Z"/><path class="cls-1" d="M52.6,11.2a3.71,3.71,0,0,1-2.38-.7,2.66,2.66,0,0,1-1-1.87h1.67a1.31,1.31,0,0,0,.54.87,1.92,1.92,0,0,0,1.2.34,1.79,1.79,0,0,0,1.11-.3.87.87,0,0,0,.39-.7.8.8,0,0,0-.47-.79,4.85,4.85,0,0,0-1.37-.32,5,5,0,0,1-1.41-.36,2.41,2.41,0,0,1-1-.74,1.8,1.8,0,0,1-.37-1.17,1.93,1.93,0,0,1,.78-1.6,3.42,3.42,0,0,1,2.17-.62,3.31,3.31,0,0,1,2.16.63,2.52,2.52,0,0,1,.89,1.72H53.93a1,1,0,0,0-.47-.73,1.85,1.85,0,0,0-1-.27,1.83,1.83,0,0,0-1,.24.72.72,0,0,0-.37.62c0,.55.6.88,1.78,1a7,7,0,0,1,1.5.31,2.27,2.27,0,0,1,1,.69,2,2,0,0,1,.38,1.31A2,2,0,0,1,55.38,10a2.84,2.84,0,0,1-1.12.87A4,4,0,0,1,52.6,11.2Z"/><path class="cls-1" d="M79.27,11.2a3.82,3.82,0,0,1-2-.49A3.49,3.49,0,0,1,76,9.33a4.3,4.3,0,0,1-.49-2.11A4.26,4.26,0,0,1,76,5.12a3.45,3.45,0,0,1,1.34-1.39,4,4,0,0,1,2-.49,3.87,3.87,0,0,1,2,.49,3.43,3.43,0,0,1,1.33,1.39A4.37,4.37,0,0,1,83,7.22a4.41,4.41,0,0,1-.48,2.11,3.63,3.63,0,0,1-1.34,1.38A3.82,3.82,0,0,1,79.27,11.2Zm0-1.55a2.2,2.2,0,0,0,1.07-.26,1.88,1.88,0,0,0,.78-.8,2.81,2.81,0,0,0,.3-1.37,2.82,2.82,0,0,0-.3-1.38,1.86,1.86,0,0,0-.78-.79,2.22,2.22,0,0,0-1.06-.26,2.29,2.29,0,0,0-1.07.26,1.94,1.94,0,0,0-.79.79,2.82,2.82,0,0,0-.3,1.38,2.44,2.44,0,0,0,.64,1.85A2.13,2.13,0,0,0,79.27,9.65Z"/><path class="cls-1" d="M27.54,11.2a2.68,2.68,0,0,1-1.41-.35,2.19,2.19,0,0,1-.88-.95h-.09L25,11H23.63V0h1.62V4.41a2.29,2.29,0,0,1,.87-.81,2.7,2.7,0,0,1,1.42-.36,3.22,3.22,0,0,1,1.7.45A3.18,3.18,0,0,1,30.43,5a5,5,0,0,1,.43,2.19,4.94,4.94,0,0,1-.43,2.19,3.12,3.12,0,0,1-1.19,1.34A3.22,3.22,0,0,1,27.54,11.2Zm-.33-1.55a1.9,1.9,0,0,0,1.44-.6,2.55,2.55,0,0,0,.58-1.81,2.62,2.62,0,0,0-.58-1.84,1.87,1.87,0,0,0-1.44-.61,1.92,1.92,0,0,0-1.45.6,2.61,2.61,0,0,0-.57,1.83A2.58,2.58,0,0,0,25.76,9,1.9,1.9,0,0,0,27.21,9.65Z"/><path class="cls-1" d="M7.21,9.61c-.33,0-.49-.17-.49-.51V6.35A3.23,3.23,0,0,0,6,4.07,3.19,3.19,0,0,0,3.5,3.24a3.72,3.72,0,0,0-2.3.7,2.58,2.58,0,0,0-1,1.89H1.79a1.4,1.4,0,0,1,.6-.91A2.08,2.08,0,0,1,3.5,4.64q1.59,0,1.59,1.71v.17H3.14a3.79,3.79,0,0,0-2.32.62A2.07,2.07,0,0,0,0,8.89,2.18,2.18,0,0,0,.31,10a2.14,2.14,0,0,0,.91.85,3.32,3.32,0,0,0,1.52.31,2.5,2.5,0,0,0,1.51-.38,3.34,3.34,0,0,0,.84-.92h.13a1.18,1.18,0,0,0,.35.76,1.51,1.51,0,0,0,1,.36H7.78V9.61ZM4.54,9.23A1.82,1.82,0,0,1,3,9.84a1.6,1.6,0,0,1-1-.28,1,1,0,0,1-.36-.79A1,1,0,0,1,2.07,8,2,2,0,0,1,3.3,7.7H5.08A2.53,2.53,0,0,1,4.54,9.23Z"/><path class="cls-1" d="M39.65,9.61a.44.44,0,0,1-.49-.51V6.35a3.22,3.22,0,0,0-.76-2.28A3.21,3.21,0,0,0,36,3.24a3.68,3.68,0,0,0-2.3.7,2.62,2.62,0,0,0-1,1.89h1.63a1.4,1.4,0,0,1,.6-.91A2,2,0,0,1,36,4.64q1.59,0,1.59,1.71v.17h-2a3.76,3.76,0,0,0-2.31.62,2.07,2.07,0,0,0-.82,1.75,2.27,2.27,0,0,0,.3,1.15,2.17,2.17,0,0,0,.92.85,3.29,3.29,0,0,0,1.52.31,2.53,2.53,0,0,0,1.51-.38,3.34,3.34,0,0,0,.84-.92h.12a1.24,1.24,0,0,0,.36.76A1.49,1.49,0,0,0,39,11h1.18V9.61ZM37,9.23a1.8,1.8,0,0,1-1.49.61,1.57,1.57,0,0,1-1-.28,1,1,0,0,1-.36-.79A1,1,0,0,1,34.52,8a2,2,0,0,1,1.23-.28h1.78A2.53,2.53,0,0,1,37,9.23Z"/><path class="cls-1" d="M64.59,9.61a.44.44,0,0,1-.49-.51V6.35a3.22,3.22,0,0,0-.76-2.28,3.21,3.21,0,0,0-2.45-.83,3.68,3.68,0,0,0-2.3.7,2.62,2.62,0,0,0-1,1.89h1.63a1.4,1.4,0,0,1,.6-.91,2,2,0,0,1,1.11-.28q1.59,0,1.59,1.71v.17h-2a3.81,3.81,0,0,0-2.32.62,2.09,2.09,0,0,0-.81,1.75,2.27,2.27,0,0,0,.3,1.15,2.17,2.17,0,0,0,.92.85,3.28,3.28,0,0,0,1.51.31,2.54,2.54,0,0,0,1.52-.38,3.34,3.34,0,0,0,.84-.92h.12a1.28,1.28,0,0,0,.35.76A1.54,1.54,0,0,0,64,11h1.18V9.61Zm-2.67-.38a1.8,1.8,0,0,1-1.49.61,1.57,1.57,0,0,1-1-.28,1,1,0,0,1-.36-.79A1,1,0,0,1,59.46,8a2,2,0,0,1,1.23-.28h1.78A2.6,2.6,0,0,1,61.92,9.23Z"/><path class="cls-1" d="M20.66,4a2.92,2.92,0,0,0-2.25-.84,3.31,3.31,0,0,0-1.59.38,2.57,2.57,0,0,0-1,.93h-.13A2.55,2.55,0,0,0,15.43,4a2.59,2.59,0,0,0-2.1-.84,2.88,2.88,0,0,0-1.48.38,2.65,2.65,0,0,0-.95.93h-.08l-.13-1.13H9.28V11H10.9v-4a2.26,2.26,0,0,1,.56-1.64,1.91,1.91,0,0,1,1.4-.56,1.46,1.46,0,0,1,1.25.52,2.36,2.36,0,0,1,.4,1.47V11h1.62v-4a2.26,2.26,0,0,1,.56-1.64,1.91,1.91,0,0,1,1.4-.56,1.49,1.49,0,0,1,1.26.52,2.42,2.42,0,0,1,.39,1.47V11h1.62V6.52A3.78,3.78,0,0,0,20.66,4Z"/></svg>